<svg id="Layer_1" data-name="Layer 1" xmlns="http://www.w3.org/2000/svg" viewBox="0 0 324.8 459.16"><path d="M350,120.42c-89.5,0-162.4,73.85-162.4,179.2,0,135.22,91.71,233,155.93,277.9h0a11.2,11.2,0,0,0,13,0c64.21-44.88,155.92-142.68,155.92-277.9,0-105.34-72.91-179.2-162.4-179.2Zm0,22.4c77.38,0,140,61.54,140,156.8,0,120.7-80.57,210.88-140,254.62-59.43-43.75-140-133.93-140-254.62C210,204.36,272.62,142.82,350,142.82Zm0,56a89.6,89.6,0,1,0,89.6,89.6A89.77,89.77,0,0,0,350,198.82Zm0,22.39a67.2,67.2,0,1,1-67.2,67.2,67,67,0,0,1,67.2-67.2Z" transform="translate(-187.6 -120.42)"/></svg>