<svg id="Layer_1" data-name="Layer 1" xmlns="http://www.w3.org/2000/svg" viewBox="0 0 513.34 513.34"><path d="M600.31,473.84a11.48,11.48,0,0,0-7.53-6.94L467.19,429.22a11.76,11.76,0,0,0-12.83,4.37l-35.52,49.7c-96.2-29.46-172.67-105.93-202.19-202.12l49.7-35.52a11.58,11.58,0,0,0,4.37-12.84L233.1,107.21a11.73,11.73,0,0,0-6.94-7.52,93.41,93.41,0,0,0-21.52-5.48,103.2,103.2,0,0,0-13.19-.88,98.26,98.26,0,0,0-98.12,98.12c0,229,186.26,415.22,415.22,415.22a98.26,98.26,0,0,0,98.12-98.12,104.56,104.56,0,0,0-.88-13.24,92.29,92.29,0,0,0-5.48-21.47ZM508.55,583.33c-216.07,0-391.88-175.82-391.88-391.88a74.86,74.86,0,0,1,74.78-74.78,90.08,90.08,0,0,1,10.21.64,68.6,68.6,0,0,1,10.79,2.33L246,231.46,196.18,267a11.7,11.7,0,0,0-4,5,11.06,11.06,0,0,0-.58,1.93.86.86,0,0,1-.12.35c-.11.58-.11,1.11-.17,1.69,0,.17-.06.41-.06.58v.12c0,.29.06.58.06.87a9.7,9.7,0,0,0,.52,2.57v.06c30.68,109.79,118,197,227.73,227.73h.06c.23.06.41.12.64.17s.35.12.58.18a7,7,0,0,0,1.11.12,8.5,8.5,0,0,0,1.17.11h.17c.3,0,.53-.05.82-.05.47-.06.88-.06,1.34-.12a8.22,8.22,0,0,0,1-.29c.41-.12.76-.24,1.11-.36a6.77,6.77,0,0,0,.88-.46c.41-.18.75-.41,1.16-.64a5,5,0,0,1,.64-.47,8.85,8.85,0,0,0,1.17-.93,3.17,3.17,0,0,1,.41-.41,8.72,8.72,0,0,0,1-1.11l35.59-49.82L580.3,487.43a75.83,75.83,0,0,1,2.33,10.73,81.94,81.94,0,0,1,.7,10.27,74.9,74.9,0,0,1-74.79,74.9Z" transform="translate(-93.33 -93.33)"/></svg>