<svg id="Capa_1" data-name="Capa 1" xmlns="http://www.w3.org/2000/svg" xmlns:xlink="http://www.w3.org/1999/xlink" viewBox="0 0 295.86 299.5"><defs><style>.cls-1{fill:#72bcc6;}.cls-2{clip-path:url(#clip-path);}.cls-3{fill:#003662;}.cls-4{fill:#dda778;}.cls-5{fill:#281511;}.cls-6{fill:#f9bb8d;}.cls-7{fill:#ac0f09;}</style><clipPath id="clip-path" transform="translate(-64.67 -4.16)"><path class="cls-1" d="M360.53,152.09A147.93,147.93,0,1,1,212.6,4.16,147.93,147.93,0,0,1,360.53,152.09Z"/></clipPath></defs><path class="cls-1" d="M360.53,152.09A147.93,147.93,0,1,1,212.6,4.16,147.93,147.93,0,0,1,360.53,152.09Z" transform="translate(-64.67 -4.16)"/><g class="cls-2"><path class="cls-3" d="M291.28,238.57c-9.3-11.6-82.88-37-82.88-37s-72,28.15-82.88,37-14.9,65.09-14.9,65.09H304.05S300.57,250.16,291.28,238.57Z" transform="translate(-64.67 -4.16)"/><path class="cls-4" d="M231.21,215.11s-1.53,7.39-10.28,11.3c-3.14,1.4-7.23,19.34-12.52,19.34-5.58,0-9.82-18.05-13-19.59-8.27-4-9.74-11-9.74-11a30.35,30.35,0,0,0,0-24c-5.55-13,52.37-15.59,45.58,0S231.21,215.11,231.21,215.11Z" transform="translate(-64.67 -4.16)"/><path class="cls-5" d="M260.42,163.51c4.24-19,9.36-47.07,9.36-47.07C287.33,77.19,269.13,18,235.1,36.2,193-2.26,126.37,51.53,148.9,115.9c0,0,2.73,29.47,7.11,48.23,4.93,21.1,41.29,36.78,52.39,37.4S255.93,183.68,260.42,163.51Z" transform="translate(-64.67 -4.16)"/><path class="cls-6" d="M272.82,127.67c0,10.29-7.3,24.42-12.21,24.42s-8.9-8.35-8.9-18.63,5-15.59,8.9-18.61C265.37,111.12,272.82,114.85,272.82,127.67Z" transform="translate(-64.67 -4.16)"/><path class="cls-6" d="M145.46,127.67c0,10.29,7.29,24.42,12.2,24.42s8.9-8.35,8.9-18.63-5-15.59-8.9-18.61C152.91,111.12,145.46,114.85,145.46,127.67Z" transform="translate(-64.67 -4.16)"/><path class="cls-6" d="M209.34,46.15c-34.55,0-49.82,24.21-49.82,60.31v45.21c0,31.45,36.33,58.34,47.81,58.34s51.83-31.44,51.83-61.23V106.46C259.16,70.36,243.89,46.15,209.34,46.15Z" transform="translate(-64.67 -4.16)"/><path class="cls-5" d="M259.16,132.22l3.11-26.34c0-36.1-18.38-63-52.93-63s-51.59,26.9-51.59,63L159.52,138a33.69,33.69,0,0,0,3.73-17.08c-.83-23.18,15.39-25.25,34.29-28.86,29.79-5.68,38.17-23.55,38.17-23.55s9.76,3.31,16,17.87c4,9.41,5,23.83,4.66,29.72S259.16,132.22,259.16,132.22Z" transform="translate(-64.67 -4.16)"/><path class="cls-7" d="M180,105.88c-13.37,0-21.72,5-21.72,10.24,0,8.38,3.05,22,16.33,23.59,12.84,1.55,29.6-3.1,29.6-24.52C204.22,110.23,193.38,105.88,180,105.88Zm-4.44,31.41c-11.36-1.37-14-13-14-20.19,0-4.51,7.15-8.76,18.59-8.76s20.73,3.72,20.73,8C200.92,134.64,186.57,138.62,175.57,137.29Z" transform="translate(-64.67 -4.16)"/><path class="cls-7" d="M212.6,120.62s-.63-3.26-5-3.26c-3,0-3.79,3.58-3.79,3.58l-1.6-9.43s2.2,1.9,3.68,1.9a14.48,14.48,0,0,0,4,0,6,6,0,0,0,2.71-1.9Z" transform="translate(-64.67 -4.16)"/><path class="cls-7" d="M160.15,125.74s-4.81-.34-4.81-2.81V115.5c0-3.87,4.81-2.64,4.81-2.64Z" transform="translate(-64.67 -4.16)"/><path class="cls-7" d="M210.44,115.19c0,21.42,16.76,26.07,29.61,24.52,13.27-1.61,16.32-15.21,16.32-23.59,0-5.27-8.35-10.24-21.72-10.24S210.44,110.23,210.44,115.19Zm3.31,1.11c0-4.24,9.28-8,20.72-8s18.59,4.25,18.59,8.76c0,7.18-2.61,18.82-14,20.19C228.1,138.62,213.75,134.64,213.75,116.3Z" transform="translate(-64.67 -4.16)"/><path class="cls-7" d="M254.51,125.74s4.81-.34,4.81-2.81V115.5c0-3.87-4.81-2.64-4.81-2.64Z" transform="translate(-64.67 -4.16)"/></g></svg>