<svg id="Layer_1" data-name="Layer 1" xmlns="http://www.w3.org/2000/svg" viewBox="0 0 522.38 522.39"><defs><style>.cls-1{fill:#d7d9d4;fill-rule:evenodd;}</style></defs><path class="cls-1" d="M332.58,541.54v52.24a17.41,17.41,0,1,0,34.82,0V541.54a17.41,17.41,0,1,0-34.82,0Zm202.11-31.48-36.94-36.93a17.42,17.42,0,0,0-24.63,24.63l36.94,36.93a17.42,17.42,0,0,0,24.63-24.63ZM202.24,473.13,165.3,510.06a17.42,17.42,0,0,0,24.63,24.63l36.94-36.93a17.42,17.42,0,0,0-24.63-24.63ZM350,210.7A139.3,139.3,0,1,0,489.3,350,139.36,139.36,0,0,0,350,210.7Zm0,34.82A104.48,104.48,0,1,1,245.52,350,104.53,104.53,0,0,1,350,245.52Zm243.78,87.07H541.54a17.41,17.41,0,1,0,0,34.82h52.24a17.41,17.41,0,1,0,0-34.82Zm-435.32,0H106.22a17.41,17.41,0,1,0,0,34.82h52.24a17.41,17.41,0,0,0,0-34.82ZM510.07,165.31l-36.94,36.93a17.42,17.42,0,0,0,24.63,24.63l36.94-36.94a17.41,17.41,0,0,0-24.63-24.62ZM226.88,202.24l-36.94-36.93a17.41,17.41,0,1,0-24.63,24.62l36.94,36.94a17.42,17.42,0,0,0,24.63-24.63Zm105.71-96v52.24a17.41,17.41,0,0,0,34.82,0V106.22a17.41,17.41,0,0,0-34.82,0Z" transform="translate(-88.81 -88.81)"/></svg>